# xmcd
#
# Track frame offsets:
#	150
#	16712
#	34757
#	49680
#	65162
#	79657
#	97207
#	113027
#	125707
#	140232
#	151895
#	167352
#	182017
#	197872
#	214130
#	231532
#	246217
#	261155
#	276157
#
# Disc length: 3813
#
# Revision: 1
# Processed by: cddbd v1.5.1PL0 Copyright (c) Steve Scherf et al.
# Submitted via: VisiTrax 2.9.5.180 - For more info visit www.synapsa.com
# Normalized: r0:DSETVAR1
#
DISCID=190ee313
DTITLE=Various Artist - CDX 140 July 1996
DYEAR=1996
DGENRE=
TTITLE0=Baker and Myers - A little bit of honey
TTITLE1=Linda Davis - Walk away
TTITLE2=John Berry - Change my mind
TTITLE3=Chris Ward - Fall reaching
TTITLE4=Paul Jefferson - Fear of a broken heart
TTITLE5=Trasher Shiver - Goin', goin', gone
TTITLE6=David Kerch - Goodnight sweetheart
TTITLE7=David Ball - Hangin' in and hangin' on
TTITLE8=Lorrie Morgan - I just might be
TTITLE9=Marty Haggard - In the afterlife
TTITLE10=Ty England - Irresistible you
TTITLE11=Ricochet - Love is stronger than pride
TTITLE12=Mavericks - Missing you
TTITLE13=Tracy Lawrence - Stars over Texas
TTITLE14=Deana Carter - Strawberry wine
TTITLE15=Jeff Carson - That last mile
TTITLE16=Ricky Skaggs - When
TTITLE17=Johnny Rodriguez - you can say that again
TTITLE18=Willie - Coat pocket
EXTD=
EXTT0=
EXTT1=
EXTT2=
EXTT3=
EXTT4=
EXTT5=
EXTT6=
EXTT7=
EXTT8=
EXTT9=
EXTT10=
EXTT11=
EXTT12=
EXTT13=
EXTT14=
EXTT15=
EXTT16=
EXTT17=
EXTT18=
PLAYORDER=
